<svg width="20" height="20" viewBox="0 0 20 20" fill="none" xmlns="http://www.w3.org/2000/svg">
<path d="M13.7076 0.199841L4.36881 9.53929C4.23523 9.67273 4.16833 9.82624 4.16833 9.9999C4.16833 10.1736 4.23523 10.3273 4.36881 10.4609L13.7076 19.7995C13.8414 19.9333 13.9949 20 14.1687 20C14.3423 20 14.496 19.9331 14.6295 19.7995L15.6313 18.7977C15.7648 18.6642 15.8316 18.5104 15.8316 18.3368C15.8316 18.1631 15.7648 18.0094 15.6313 17.8758L7.75547 9.9999L15.6318 2.12369C15.7653 1.99018 15.8317 1.83639 15.8317 1.66301C15.8317 1.48907 15.7649 1.33535 15.6318 1.20185L14.6296 0.199911C14.4961 0.0664043 14.3423 7.24792e-05 14.1687 7.24792e-05C13.9949 1.90735e-06 13.8412 0.0663338 13.7076 0.199841Z" fill="#9C6161"/>
</svg>
