<svg width="12" height="20" viewBox="0 0 12 20" fill="none" xmlns="http://www.w3.org/2000/svg">
<path d="M2.29238 0.199841L11.6312 9.53929C11.7648 9.67273 11.8317 9.82624 11.8317 9.9999C11.8317 10.1736 11.7648 10.3273 11.6312 10.4609L2.29238 19.7995C2.15859 19.9333 2.00508 20 1.83135 20C1.65769 20 1.50397 19.9331 1.37046 19.7995L0.368738 18.7977C0.235161 18.6642 0.168407 18.5104 0.168407 18.3368C0.168407 18.1631 0.235161 18.0094 0.368738 17.8758L8.24453 9.9999L0.368246 2.12369C0.234669 1.99018 0.168338 1.83639 0.168338 1.66301C0.168338 1.48907 0.23509 1.33535 0.368246 1.20185L1.37039 0.199911C1.5039 0.0664043 1.65769 7.24792e-05 1.83128 7.24792e-05C2.00508 1.90735e-06 2.1588 0.0663338 2.29238 0.199841Z" fill="#CF7F7F"/>
</svg>
