<svg width="30" height="32" viewBox="0 0 30 32" fill="none" xmlns="http://www.w3.org/2000/svg">
<path d="M26.25 10H3.75C3.50136 10 3.2629 9.89464 3.08709 9.70711C2.91127 9.51957 2.8125 9.26522 2.8125 9C2.8125 8.73478 2.91127 8.48043 3.08709 8.29289C3.2629 8.10536 3.50136 8 3.75 8H26.25C26.4986 8 26.7371 8.10536 26.9129 8.29289C27.0887 8.48043 27.1875 8.73478 27.1875 9C27.1875 9.26522 27.0887 9.51957 26.9129 9.70711C26.7371 9.89464 26.4986 10 26.25 10Z" fill="#CF7F7F"/>
<path d="M26.25 17H3.75C3.50136 17 3.2629 16.8946 3.08709 16.7071C2.91127 16.5196 2.8125 16.2652 2.8125 16C2.8125 15.7348 2.91127 15.4804 3.08709 15.2929C3.2629 15.1054 3.50136 15 3.75 15H26.25C26.4986 15 26.7371 15.1054 26.9129 15.2929C27.0887 15.4804 27.1875 15.7348 27.1875 16C27.1875 16.2652 27.0887 16.5196 26.9129 16.7071C26.7371 16.8946 26.4986 17 26.25 17Z" fill="#CF7F7F"/>
<path d="M26.25 24H3.75C3.50136 24 3.2629 23.8946 3.08709 23.7071C2.91127 23.5196 2.8125 23.2652 2.8125 23C2.8125 22.7348 2.91127 22.4804 3.08709 22.2929C3.2629 22.1054 3.50136 22 3.75 22H26.25C26.4986 22 26.7371 22.1054 26.9129 22.2929C27.0887 22.4804 27.1875 22.7348 27.1875 23C27.1875 23.2652 27.0887 23.5196 26.9129 23.7071C26.7371 23.8946 26.4986 24 26.25 24Z" fill="#CF7F7F"/>
</svg>
