<svg width="33" height="33" viewBox="0 0 33 33" fill="none" xmlns="http://www.w3.org/2000/svg">
<circle cx="16.5" cy="16.5" r="16.5" fill="#CE4C4C"/>
<path d="M21.0772 9.9434C21.6238 9.39681 22.51 9.39681 23.0566 9.9434C23.6032 10.49 23.6032 11.3762 23.0566 11.9228L11.9226 23.0568C11.376 23.6034 10.4899 23.6034 9.94327 23.0568C9.39668 22.5102 9.39668 21.624 9.94327 21.0774L21.0772 9.9434Z" fill="white"/>
<path d="M9.94339 11.9228C9.3968 11.3762 9.3968 10.49 9.94339 9.94339C10.49 9.3968 11.3762 9.3968 11.9228 9.94339L23.0567 21.0774C23.6033 21.624 23.6033 22.5102 23.0567 23.0568C22.5101 23.6034 21.6239 23.6034 21.0773 23.0568L9.94339 11.9228Z" fill="white"/>
</svg>
