<svg width="29" height="30" viewBox="0 0 29 30" fill="none" xmlns="http://www.w3.org/2000/svg">
<path d="M14.5869 29.0122C22.3527 29.0122 28.6481 22.7168 28.6481 14.9511C28.6481 7.18529 22.3527 0.889893 14.5869 0.889893C6.82115 0.889893 0.525757 7.18529 0.525757 14.9511C0.525757 22.7168 6.82115 29.0122 14.5869 29.0122Z" fill="#3F65A6"/>
<path d="M12.4503 10.3262C12.4503 10.7327 12.4503 12.5453 12.4503 12.5453H10.8245V15.2586H12.4503V22.6957H15.7898V15.2531H18.0308C18.0308 15.2531 18.2395 13.9514 18.3439 12.5288C18.0528 12.5288 15.8063 12.5288 15.8063 12.5288C15.8063 12.5288 15.8063 10.9524 15.8063 10.6723C15.8063 10.3976 16.1688 10.0241 16.5313 10.0241C16.8883 10.0241 17.6463 10.0241 18.3494 10.0241C18.3494 9.65614 18.3494 8.37635 18.3494 7.20093C17.4101 7.20093 16.3446 7.20093 15.8777 7.20093C12.3679 7.20642 12.4503 9.91979 12.4503 10.3262Z" fill="white"/>
</svg>
