<svg width="36" height="36" viewBox="0 0 36 36" fill="none" xmlns="http://www.w3.org/2000/svg">
<path opacity="0.2" d="M30.0938 13.5H4.78125C4.0046 13.5 3.375 14.1296 3.375 14.9062V30.0938C3.375 30.8704 4.0046 31.5 4.78125 31.5H30.0938C30.8704 31.5 31.5 30.8704 31.5 30.0938V14.9062C31.5 14.1296 30.8704 13.5 30.0938 13.5Z" fill="black"/>
<path d="M3.375 24.4688C3.375 25.2472 4.00219 25.875 4.78125 25.875H30.0938C30.8722 25.875 31.5 25.2472 31.5 24.4688V9.28125C31.5 8.50219 30.8722 7.875 30.0938 7.875H15.75V7.03125C15.75 6.25219 15.1234 5.625 14.3438 5.625H4.78125C4.00219 5.625 3.375 6.25219 3.375 7.03125" fill="#A76B6B"/>
<path opacity="0.2" d="M30.0938 11.25H4.78125C4.0046 11.25 3.375 11.8796 3.375 12.6562V27.8438C3.375 28.6204 4.0046 29.25 4.78125 29.25H30.0938C30.8704 29.25 31.5 28.6204 31.5 27.8438V12.6562C31.5 11.8796 30.8704 11.25 30.0938 11.25Z" fill="black"/>
<path d="M27.8438 10.125H7.03125C6.2546 10.125 5.625 10.7546 5.625 11.5312V19.9688C5.625 20.7454 6.2546 21.375 7.03125 21.375H27.8438C28.6204 21.375 29.25 20.7454 29.25 19.9688V11.5312C29.25 10.7546 28.6204 10.125 27.8438 10.125Z" fill="#E4E4E4"/>
<path d="M30.0938 12.375H4.78125C4.0046 12.375 3.375 13.0046 3.375 13.7812V28.9688C3.375 29.7454 4.0046 30.375 4.78125 30.375H30.0938C30.8704 30.375 31.5 29.7454 31.5 28.9688V13.7812C31.5 13.0046 30.8704 12.375 30.0938 12.375Z" fill="#BF7D7D"/>
<path opacity="0.1" d="M4.78125 5.625C4.00219 5.625 3.375 6.25219 3.375 7.03125V8.15625C3.375 7.37719 4.00219 6.75 4.78125 6.75H14.3438C15.1234 6.75 15.75 7.37719 15.75 8.15625V9H30.0938C30.8722 9 31.5 9.62719 31.5 10.4062V9.28125C31.5 8.50219 30.8722 7.875 30.0938 7.875H15.75V7.03125C15.75 6.25219 15.1234 5.625 14.3438 5.625H4.78125Z" fill="white"/>
<path d="M15.75 16.875L14.625 18H14.0625C13.1276 18 12.375 18.6266 12.375 19.4062V24.4688C12.375 25.2472 13.1276 25.875 14.0625 25.875H21.9375C22.8724 25.875 23.625 25.2472 23.625 24.4688V19.4062C23.625 18.6266 22.8724 18 21.9375 18H21.375L20.25 16.875H15.75ZM18 19.125C18.5967 19.125 19.169 19.3621 19.591 19.784C20.0129 20.206 20.25 20.7783 20.25 21.375C20.25 21.9717 20.0129 22.544 19.591 22.966C19.169 23.3879 18.5967 23.625 18 23.625C17.4033 23.625 16.831 23.3879 16.409 22.966C15.9871 22.544 15.75 21.9717 15.75 21.375C15.75 20.7783 15.9871 20.206 16.409 19.784C16.831 19.3621 17.4033 19.125 18 19.125Z" fill="white"/>
</svg>
