<svg aria-hidden="true" style="position: absolute; width: 0; height: 0; overflow: hidden;" version="1.1" xmlns="http://www.w3.org/2000/svg" xmlns:xlink="http://www.w3.org/1999/xlink">
    <defs>
        <symbol id="icon-logo" viewBox="0 0 169 32">
            <path fill="#cf7f7f" style="fill: var(--color3, #cf7f7f)" d="M39.353 11.243h2.076c0.992 0 1.793 0.144 2.404 0.432 0.623 0.288 1.084 0.686 1.384 1.194 0.311 0.496 0.479 1.061 0.502 1.695 0.023 0.588-0.075 1.124-0.294 1.609s-0.519 0.888-0.899 1.211-0.819 0.559-1.315 0.709c-0.484 0.138-0.992 0.173-1.522 0.104-0.519-0.081-1.026-0.283-1.522-0.605v-0.173c0 0 0.069 0 0.208 0 0.15 0 0.334-0.023 0.553-0.069 0.231-0.046 0.467-0.133 0.709-0.259 0.254-0.127 0.49-0.323 0.709-0.588s0.386-0.617 0.502-1.055c0.046-0.15 0.075-0.317 0.087-0.502 0.023-0.196 0.029-0.375 0.017-0.536-0.012-0.738-0.213-1.326-0.605-1.764-0.381-0.45-0.923-0.675-1.626-0.675h-1.194c0 0-0.017-0.058-0.052-0.173-0.023-0.127-0.052-0.248-0.087-0.363-0.023-0.127-0.035-0.19-0.035-0.19zM39.578 11.243v12.108h-2.595v-12.108h2.595zM37.035 22.089v1.263h-1.384v-0.173c0.011 0 0.046 0 0.104 0 0.069 0 0.109 0 0.121 0 0.3 0 0.553-0.104 0.761-0.311 0.219-0.219 0.334-0.479 0.346-0.778h0.052zM37.035 12.506h-0.052c0-0.3-0.11-0.553-0.329-0.761-0.219-0.219-0.479-0.329-0.778-0.329-0.012 0-0.046 0-0.104 0s-0.092 0-0.104 0l-0.017-0.173h1.384v1.263zM39.526 22.089h0.052c0.011 0.3 0.121 0.559 0.329 0.778 0.219 0.208 0.479 0.311 0.778 0.311 0.011 0 0.046 0 0.104 0 0.069 0 0.109 0 0.121 0v0.173h-1.384v-1.263zM59.043 11.243v12.108h-2.595v-12.108h2.595zM50.844 11.243v12.108h-2.595v-12.108h2.595zM56.604 16.951v0.744h-5.933v-0.744h5.933zM48.301 22.089v1.263h-1.384v-0.173c0 0 0.035 0 0.104 0 0.081 0 0.121 0 0.121 0 0.3 0 0.553-0.104 0.761-0.311 0.219-0.219 0.334-0.479 0.346-0.778h0.052zM48.301 12.506h-0.052c-0.011-0.3-0.127-0.553-0.346-0.761-0.208-0.219-0.461-0.329-0.761-0.329 0 0-0.040 0-0.121 0-0.069 0-0.104 0-0.104 0v-0.173h1.384v1.263zM50.792 22.089h0.052c0.011 0.3 0.121 0.559 0.329 0.778 0.219 0.208 0.479 0.311 0.778 0.311 0 0 0.035 0 0.104 0s0.11 0 0.121 0v0.173h-1.384v-1.263zM50.792 12.506v-1.263h1.384v0.173c-0.011 0-0.052 0-0.121 0s-0.104 0-0.104 0c-0.3 0-0.559 0.11-0.778 0.329-0.208 0.208-0.317 0.461-0.329 0.761h-0.052zM56.5 22.089v1.263h-1.384v-0.173c0.011 0 0.052 0 0.121 0s0.104 0 0.104 0c0.3 0 0.559-0.104 0.778-0.311 0.219-0.219 0.329-0.479 0.329-0.778h0.052zM56.5 12.506h-0.052c0-0.3-0.11-0.553-0.329-0.761-0.219-0.219-0.479-0.329-0.778-0.329 0 0-0.035 0-0.104 0s-0.11 0-0.121 0v-0.173h1.384v1.263zM58.991 22.089h0.052c0.011 0.3 0.121 0.559 0.329 0.778 0.219 0.208 0.479 0.311 0.778 0.311 0 0 0.035 0 0.104 0 0.081 0 0.121 0 0.121 0v0.173h-1.384v-1.263zM58.991 12.506v-1.263h1.384v0.173c0 0-0.040 0-0.121 0-0.069 0-0.104 0-0.104 0-0.3 0-0.559 0.11-0.778 0.329-0.208 0.208-0.317 0.461-0.329 0.761h-0.052zM68.414 11.001c1.384 0 2.583 0.259 3.598 0.778 1.026 0.507 1.816 1.228 2.37 2.162 0.565 0.934 0.848 2.053 0.848 3.356 0 1.291-0.283 2.41-0.848 3.356-0.553 0.934-1.343 1.661-2.37 2.179-1.015 0.507-2.214 0.761-3.598 0.761s-2.589-0.254-3.615-0.761c-1.015-0.519-1.799-1.245-2.352-2.179s-0.83-2.053-0.83-3.356c0-1.291 0.277-2.404 0.83-3.338 0.553-0.946 1.338-1.672 2.352-2.179 1.026-0.519 2.231-0.778 3.615-0.778zM68.414 22.867c0.819 0 1.522-0.225 2.11-0.675 0.588-0.461 1.044-1.107 1.367-1.937s0.484-1.816 0.484-2.958-0.161-2.128-0.484-2.958c-0.323-0.83-0.778-1.47-1.367-1.92-0.588-0.461-1.292-0.692-2.11-0.692-0.807 0-1.511 0.231-2.11 0.692-0.588 0.45-1.044 1.090-1.367 1.92s-0.484 1.816-0.484 2.958 0.161 2.128 0.484 2.958c0.323 0.83 0.778 1.476 1.367 1.937 0.6 0.45 1.303 0.675 2.11 0.675zM82.657 11.295v12.056h-2.595v-12.056h2.595zM86.896 11.226v0.726h-11.071v-0.726h11.071zM86.896 11.901v2.041l-0.173-0.017v-0.19c0-0.542-0.162-0.969-0.485-1.28-0.311-0.323-0.738-0.49-1.28-0.502v-0.052h1.938zM86.896 10.915v0.502l-2.111-0.19c0.254 0 0.519-0.017 0.796-0.052 0.288-0.035 0.553-0.075 0.796-0.121s0.415-0.092 0.519-0.138zM80.115 22.089v1.263h-1.384v-0.173c0 0 0.035 0 0.104 0 0.081 0 0.121 0 0.121 0 0.3 0 0.553-0.104 0.761-0.311 0.219-0.219 0.334-0.479 0.346-0.778h0.052zM82.606 22.089h0.052c0.011 0.3 0.121 0.559 0.329 0.778 0.219 0.208 0.479 0.311 0.778 0.311 0 0 0.035 0 0.104 0 0.081 0 0.121 0 0.121 0v0.173h-1.384v-1.263zM77.745 11.901v0.052c-0.531 0.011-0.957 0.179-1.28 0.502-0.311 0.311-0.467 0.738-0.467 1.28v0.19l-0.173 0.017v-2.041h1.92zM75.825 10.915c0.115 0.046 0.288 0.092 0.519 0.138 0.242 0.046 0.507 0.086 0.796 0.121s0.553 0.052 0.796 0.052l-2.11 0.19v-0.502zM94.596 11.001c1.384 0 2.583 0.259 3.598 0.778 1.027 0.507 1.816 1.228 2.37 2.162 0.565 0.934 0.848 2.053 0.848 3.356 0 1.291-0.283 2.41-0.848 3.356-0.553 0.934-1.343 1.661-2.37 2.179-1.014 0.507-2.214 0.761-3.598 0.761s-2.589-0.254-3.615-0.761c-1.014-0.519-1.799-1.245-2.352-2.179s-0.83-2.053-0.83-3.356c0-1.291 0.277-2.404 0.83-3.338 0.553-0.946 1.338-1.672 2.352-2.179 1.027-0.519 2.231-0.778 3.615-0.778zM94.596 22.867c0.819 0 1.522-0.225 2.11-0.675 0.588-0.461 1.044-1.107 1.367-1.937s0.484-1.816 0.484-2.958c0-1.142-0.162-2.128-0.484-2.958s-0.778-1.47-1.367-1.92c-0.588-0.461-1.291-0.692-2.11-0.692-0.807 0-1.511 0.231-2.11 0.692-0.588 0.45-1.044 1.090-1.367 1.92s-0.484 1.816-0.484 2.958c0 1.142 0.162 2.128 0.484 2.958s0.778 1.476 1.367 1.937c0.599 0.45 1.303 0.675 2.11 0.675z"></path>
            <path fill="#7d7d7d" style="fill: var(--color4, #7d7d7d)" d="M106.945 11.001c0.231 0 0.514 0.011 0.848 0.035 0.346 0.023 0.698 0.058 1.055 0.104 0.369 0.035 0.687 0.075 0.951 0.121 0.277 0.035 0.467 0.075 0.571 0.121l-0.208 2.335h-0.173c0-0.6-0.225-1.078-0.675-1.436-0.438-0.369-1.026-0.553-1.764-0.553-0.669 0-1.211 0.161-1.626 0.484-0.403 0.323-0.617 0.715-0.64 1.176-0.011 0.346 0.099 0.646 0.329 0.899s0.525 0.49 0.882 0.709l3.304 2.145c0.531 0.3 0.929 0.692 1.194 1.176 0.277 0.484 0.398 1.049 0.363 1.695-0.057 1.13-0.49 2.012-1.297 2.646-0.807 0.623-1.903 0.934-3.287 0.934-0.507 0-1.003-0.046-1.488-0.138-0.472-0.081-0.893-0.196-1.263-0.346-0.368-0.161-0.662-0.352-0.882-0.571-0.092-0.254-0.132-0.559-0.121-0.917s0.064-0.721 0.156-1.090c0.104-0.369 0.231-0.675 0.381-0.917h0.156c-0.046 0.588 0.058 1.136 0.311 1.643 0.266 0.496 0.646 0.894 1.142 1.194 0.508 0.288 1.107 0.427 1.799 0.415 0.761-0.012 1.349-0.202 1.764-0.571 0.415-0.381 0.623-0.836 0.623-1.366 0-0.357-0.109-0.68-0.329-0.969-0.208-0.288-0.553-0.565-1.038-0.83l-3.027-2.006c-0.611-0.346-1.055-0.79-1.332-1.332s-0.386-1.13-0.329-1.764c0.058-0.6 0.237-1.124 0.536-1.574 0.3-0.461 0.709-0.819 1.228-1.072 0.531-0.254 1.159-0.381 1.885-0.381zM110.387 11.174l-0.035 0.363h-2.041v-0.363h2.076zM124.905 11.243v12.108h-2.595v-12.108h2.595zM116.706 11.243v12.108h-2.595v-12.108h2.595zM122.466 16.951v0.744h-5.933v-0.744h5.933zM114.163 22.089v1.263h-1.384v-0.173c0 0 0.035 0 0.104 0 0.080 0 0.121 0 0.121 0 0.299 0 0.553-0.104 0.761-0.311 0.219-0.219 0.334-0.479 0.346-0.778h0.052zM114.163 12.506h-0.052c-0.012-0.3-0.127-0.553-0.346-0.761-0.208-0.219-0.462-0.329-0.761-0.329 0 0-0.041 0-0.121 0-0.069 0-0.104 0-0.104 0v-0.173h1.384v1.263zM116.654 22.089h0.052c0.011 0.3 0.121 0.559 0.329 0.778 0.219 0.208 0.478 0.311 0.778 0.311 0 0 0.035 0 0.104 0s0.109 0 0.121 0v0.173h-1.384v-1.263zM116.654 12.506v-1.263h1.384v0.173c-0.012 0-0.052 0-0.121 0s-0.104 0-0.104 0c-0.3 0-0.56 0.11-0.778 0.329-0.208 0.208-0.317 0.461-0.329 0.761h-0.052zM122.362 22.089v1.263h-1.384v-0.173c0.011 0 0.052 0 0.121 0s0.104 0 0.104 0c0.299 0 0.559-0.104 0.778-0.311 0.219-0.219 0.329-0.479 0.329-0.778h0.052zM122.362 12.506h-0.052c0-0.3-0.11-0.553-0.329-0.761-0.22-0.219-0.479-0.329-0.778-0.329 0 0-0.035 0-0.104 0s-0.11 0-0.121 0v-0.173h1.384v1.263zM124.853 22.089h0.052c0.011 0.3 0.121 0.559 0.329 0.778 0.219 0.208 0.478 0.311 0.778 0.311 0 0 0.035 0 0.104 0 0.080 0 0.121 0 0.121 0v0.173h-1.384v-1.263zM124.853 12.506v-1.263h1.384v0.173c0 0-0.041 0-0.121 0-0.069 0-0.104 0-0.104 0-0.3 0-0.56 0.11-0.778 0.329-0.208 0.208-0.317 0.461-0.329 0.761h-0.052zM134.275 11.001c1.384 0 2.583 0.259 3.598 0.778 1.027 0.507 1.816 1.228 2.37 2.162 0.565 0.934 0.848 2.053 0.848 3.356 0 1.291-0.283 2.41-0.848 3.356-0.554 0.934-1.343 1.661-2.37 2.179-1.014 0.507-2.214 0.761-3.598 0.761s-2.589-0.254-3.615-0.761c-1.014-0.519-1.799-1.245-2.352-2.179s-0.83-2.053-0.83-3.356c0-1.291 0.277-2.404 0.83-3.338 0.554-0.946 1.338-1.672 2.352-2.179 1.027-0.519 2.231-0.778 3.615-0.778zM134.275 22.867c0.819 0 1.522-0.225 2.11-0.675 0.588-0.461 1.044-1.107 1.367-1.937s0.484-1.816 0.484-2.958c0-1.142-0.162-2.128-0.484-2.958s-0.778-1.47-1.367-1.92c-0.588-0.461-1.291-0.692-2.11-0.692-0.807 0-1.511 0.231-2.11 0.692-0.588 0.45-1.044 1.090-1.367 1.92s-0.484 1.816-0.484 2.958c0 1.142 0.162 2.128 0.484 2.958s0.778 1.476 1.367 1.937c0.599 0.45 1.303 0.675 2.11 0.675zM149.664 11.001c1.384 0 2.583 0.259 3.598 0.778 1.027 0.507 1.816 1.228 2.37 2.162 0.565 0.934 0.848 2.053 0.848 3.356 0 1.291-0.283 2.41-0.848 3.356-0.554 0.934-1.343 1.661-2.37 2.179-1.014 0.507-2.214 0.761-3.598 0.761s-2.589-0.254-3.615-0.761c-1.014-0.519-1.799-1.245-2.352-2.179s-0.83-2.053-0.83-3.356c0-1.291 0.277-2.404 0.83-3.338 0.554-0.946 1.338-1.672 2.352-2.179 1.027-0.519 2.231-0.778 3.615-0.778zM149.664 22.867c0.819 0 1.522-0.225 2.11-0.675 0.588-0.461 1.044-1.107 1.367-1.937s0.484-1.816 0.484-2.958c0-1.142-0.162-2.128-0.484-2.958s-0.778-1.47-1.367-1.92c-0.588-0.461-1.291-0.692-2.11-0.692-0.807 0-1.511 0.231-2.11 0.692-0.588 0.45-1.044 1.090-1.367 1.92s-0.484 1.816-0.484 2.958c0 1.142 0.162 2.128 0.484 2.958s0.778 1.476 1.367 1.937c0.599 0.45 1.303 0.675 2.11 0.675zM163.907 11.295v12.056h-2.595v-12.056h2.595zM168.145 11.226v0.726h-11.070v-0.726h11.070zM168.145 11.901v2.041l-0.173-0.017v-0.19c0-0.542-0.162-0.969-0.484-1.28-0.311-0.323-0.738-0.49-1.28-0.502v-0.052h1.937zM168.145 10.915v0.502l-2.11-0.19c0.253 0 0.519-0.017 0.796-0.052 0.288-0.035 0.554-0.075 0.796-0.121s0.415-0.092 0.519-0.138zM161.365 22.089v1.263h-1.384v-0.173c0 0 0.035 0 0.104 0 0.080 0 0.121 0 0.121 0 0.3 0 0.554-0.104 0.761-0.311 0.219-0.219 0.335-0.479 0.346-0.778h0.052zM163.856 22.089h0.052c0.011 0.3 0.121 0.559 0.329 0.778 0.219 0.208 0.478 0.311 0.778 0.311 0 0 0.035 0 0.104 0 0.080 0 0.121 0 0.121 0v0.173h-1.384v-1.263zM158.995 11.901v0.052c-0.53 0.011-0.957 0.179-1.28 0.502-0.311 0.311-0.467 0.738-0.467 1.28v0.19l-0.173 0.017v-2.041h1.92zM157.075 10.915c0.115 0.046 0.288 0.092 0.519 0.138 0.242 0.046 0.508 0.086 0.796 0.121s0.554 0.052 0.796 0.052l-2.11 0.19v-0.502z"></path>
            <path fill="#cf7f7f" style="fill: var(--color3, #cf7f7f)" d="M13.744 0l-13.12 7.87 13.244 7.495 3.373-1.874-3.373-1.999 6.622-3.748 3.249 1.874 3.249-1.874-13.244-7.745zM10.683 9.682l-3.373-1.999 6.497-3.748 3.373 1.874-6.497 3.873z"></path>
            <path fill="#7d7d7d" style="fill: var(--color4, #7d7d7d)" d="M14.369 16.365v15.365l13.307-7.745v-5.622l-3.373 1.936v1.999l-6.622 3.748v-7.745l6.622-3.748v1.874l3.373-1.874v-5.746l-13.307 7.558z"></path>
            <path fill="#7f9acf" style="fill: var(--color5, #7f9acf)" d="M13.244 21.499v-4.947l-13.244-7.683v15.366l13.244 7.495v-6.615l-1.999-2.379 1.999-1.238zM9.808 26.172l-6.622-3.997v-1.999l6.657 3.821-0.035 2.175zM9.904 20.237l-6.718-3.898v-1.785l6.747 3.873-0.029 1.81z"></path>
        </symbol>
        <symbol id="icon-phone-icon" viewBox="0 0 32 32">
            <path fill="#fff" style="fill: var(--color1, #fff)" d="M8.827 14.387c1.92 3.773 5.013 6.867 8.787 8.787l2.933-2.933c0.373-0.373 0.893-0.48 1.36-0.333 1.493 0.493 3.093 0.76 4.76 0.76 0.354 0 0.693 0.14 0.943 0.391s0.391 0.589 0.391 0.943v4.667c0 0.354-0.14 0.693-0.391 0.943s-0.589 0.391-0.943 0.391c-6.011 0-11.777-2.388-16.028-6.639s-6.639-10.016-6.639-16.028c0-0.354 0.14-0.693 0.391-0.943s0.589-0.391 0.943-0.391h4.667c0.354 0 0.693 0.14 0.943 0.391s0.391 0.589 0.391 0.943c0 1.667 0.267 3.267 0.76 4.76 0.147 0.467 0.040 0.987-0.333 1.36l-2.933 2.933z"></path>
        </symbol>
    </defs>
</svg>

