<svg width="16" height="13" viewBox="0 0 16 13" fill="none" xmlns="http://www.w3.org/2000/svg">
<path d="M10.7113 7.06655L15.8346 11.4579C15.9436 11.2083 15.9999 10.9389 16 10.6666V3.69922L10.7113 7.06655Z" fill="#CF7F7F"/>
<path d="M8.35869 6.98184L15.928 2.1645C15.8172 1.73697 15.5679 1.35815 15.2191 1.08717C14.8704 0.81618 14.4417 0.668266 14 0.666504H2.00002C1.55835 0.668266 1.12969 0.81618 0.780913 1.08717C0.43214 1.35815 0.182878 1.73697 0.0720215 2.1645L7.64202 6.98184C7.74925 7.04961 7.8735 7.08559 8.00035 7.08559C8.12721 7.08559 8.25146 7.04961 8.35869 6.98184Z" fill="#CF7F7F"/>
<path d="M0 3.69922V10.6666C0.000247321 10.9384 0.0565291 11.2074 0.165333 11.4566L5.28867 7.06655L0 3.69922Z" fill="#CF7F7F"/>
<path d="M9.54261 7.80926L9.07595 8.10726C8.75461 8.31021 8.38234 8.41792 8.00228 8.41792C7.62222 8.41792 7.24995 8.31021 6.92861 8.10726L6.46195 7.80859C6.45195 7.81793 6.44795 7.83059 6.43795 7.83926L1.07861 12.4299C1.36176 12.5829 1.67811 12.6642 1.99995 12.6666H13.9999C14.322 12.6642 14.6386 12.5829 14.9219 12.4299L9.56661 7.83926C9.55595 7.83059 9.55195 7.81793 9.54261 7.80926Z" fill="#CF7F7F"/>
</svg>
