<svg width="13" height="15" viewBox="0 0 13 15" fill="none" xmlns="http://www.w3.org/2000/svg">
<path d="M6.48898 7.82764C3.10771 7.83401 0.310569 10.511 0.141645 13.8941C0.137148 13.9901 0.152235 14.086 0.185987 14.176C0.219739 14.266 0.27145 14.3482 0.337973 14.4176C0.404495 14.4869 0.484438 14.5421 0.572936 14.5795C0.661434 14.617 0.756635 14.6361 0.852745 14.6357H12.1529C12.2485 14.6354 12.3431 14.6157 12.431 14.5779C12.5188 14.5401 12.5981 14.4849 12.664 14.4156C12.73 14.3463 12.7812 14.2644 12.8146 14.1747C12.848 14.0851 12.8629 13.9897 12.8584 13.8941C12.6893 10.5068 9.8856 7.82801 6.50004 7.82764H6.48898Z" fill="#CF7F7F"/>
<path d="M6.50029 0.364258C4.70791 0.364258 3.24665 1.83239 3.24664 3.62676C3.24664 5.42113 4.7079 6.89432 6.50029 6.89432C8.29268 6.89432 9.75899 5.42113 9.75898 3.62676C9.75897 1.83239 8.29267 0.364258 6.50029 0.364258Z" fill="#CF7F7F"/>
</svg>
