<svg width="19" height="19" viewBox="0 0 19 19" fill="none" xmlns="http://www.w3.org/2000/svg">
<path d="M5.24083 8.54208C6.38083 10.7825 8.2175 12.6192 10.4579 13.7592L12.1996 12.0175C12.4212 11.7958 12.73 11.7325 13.0071 11.8196C13.8938 12.1125 14.8438 12.2708 15.8333 12.2708C16.0433 12.2708 16.2447 12.3542 16.3931 12.5027C16.5416 12.6512 16.625 12.8525 16.625 13.0625V15.8333C16.625 16.0433 16.5416 16.2447 16.3931 16.3931C16.2447 16.5416 16.0433 16.625 15.8333 16.625C12.264 16.625 8.84078 15.2071 6.31685 12.6831C3.79293 10.1592 2.375 6.73604 2.375 3.16667C2.375 2.9567 2.45841 2.75534 2.60687 2.60687C2.75534 2.45841 2.9567 2.375 3.16667 2.375H5.9375C6.14746 2.375 6.34883 2.45841 6.49729 2.60687C6.64576 2.75534 6.72917 2.9567 6.72917 3.16667C6.72917 4.15625 6.8875 5.10625 7.18042 5.99292C7.2675 6.27 7.20417 6.57875 6.9825 6.80042L5.24083 8.54208Z" fill="white"/>
</svg>
