<svg width="33" height="33" viewBox="0 0 33 33" fill="none" xmlns="http://www.w3.org/2000/svg">
<path d="M16.4953 31.8912C24.7464 31.8912 31.4353 25.2023 31.4353 16.9512C31.4353 8.70009 24.7464 2.01123 16.4953 2.01123C8.24416 2.01123 1.5553 8.70009 1.5553 16.9512C1.5553 25.2023 8.24416 31.8912 16.4953 31.8912Z" fill="#2CBDE2"/>
<path d="M9.89484 11.477C9.89484 11.477 12.2642 14.1557 16.186 14.5934C16.186 14.5934 15.9992 12.3524 17.9893 11.1035C17.9893 11.1035 20.0435 9.73207 21.6017 11.728C21.6017 11.728 23.0957 11.4187 23.656 11.0452C23.656 11.0452 23.2183 11.8914 22.4713 12.6209L24.152 12.2882L22.5938 13.969C22.5938 13.969 23.2183 19.6357 17.0205 22.6236C17.0205 22.6236 12.1942 24.3686 8.8327 22.0634C8.8327 22.0634 12.9412 21.439 13.3789 20.5052C13.3789 20.5052 11.1963 20.2543 10.636 18.3868L11.8207 18.3226C11.8207 18.3226 9.76645 18.1358 9.51551 15.2062L10.887 15.3929C10.8928 15.3988 8.71015 14.7802 9.89484 11.477Z" fill="white"/>
</svg>
