<svg width="32" height="32" viewBox="0 0 32 32" fill="none" xmlns="http://www.w3.org/2000/svg">
<g clip-path="url(#clip0_1_385)">
<path d="M16.0691 31.0557C24.4112 31.0557 31.1739 24.2931 31.1739 15.951C31.1739 7.60885 24.4112 0.846191 16.0691 0.846191C7.72698 0.846191 0.964325 7.60885 0.964325 15.951C0.964325 24.2931 7.72698 31.0557 16.0691 31.0557Z" fill="#25D366"/>
<path fill-rule="evenodd" clip-rule="evenodd" d="M16.567 24.3545H16.5633C15.06 24.354 13.583 23.9768 12.2711 23.2612L7.50974 24.5102L8.78395 19.856C7.99793 18.4938 7.58438 16.9487 7.58501 15.3657C7.58702 10.4135 11.6162 6.38452 16.5669 6.38452C18.9696 6.38556 21.2247 7.32096 22.9205 9.01867C24.6163 10.7163 25.5496 12.9729 25.5487 15.3728C25.5467 20.3239 21.5191 24.3525 16.567 24.3545ZM12.4917 21.6352L12.7643 21.797C13.9105 22.4772 15.2244 22.8371 16.564 22.8376H16.567C20.6816 22.8376 24.0305 19.4886 24.0321 15.3723C24.033 13.3775 23.2572 11.502 21.8477 10.0909C20.4383 8.67976 18.5639 7.90224 16.5699 7.90155C12.4521 7.90155 9.10316 11.2502 9.10153 15.3663C9.10096 16.7769 9.49563 18.1506 10.2429 19.3391L10.4204 19.6216L9.66626 22.3764L12.4917 21.6352ZM20.7846 17.3065C20.9411 17.3822 21.0468 17.4333 21.0919 17.5086C21.148 17.6022 21.148 18.0516 20.9611 18.5758C20.774 19.1001 19.8774 19.5785 19.4462 19.6429C19.0596 19.7008 18.5703 19.7249 18.0327 19.554C17.7067 19.4506 17.2888 19.3125 16.7533 19.0813C14.6494 18.1728 13.2275 16.1336 12.9588 15.7482C12.94 15.7212 12.9268 15.7023 12.9194 15.6925L12.9177 15.6901C12.7989 15.5317 12.0031 14.4699 12.0031 13.371C12.0031 12.3372 12.5109 11.7954 12.7446 11.546C12.7607 11.5289 12.7754 11.5132 12.7885 11.4988C12.9943 11.2741 13.2374 11.2179 13.387 11.2179C13.5366 11.2179 13.6864 11.2192 13.8172 11.2259C13.8333 11.2267 13.8501 11.2265 13.8674 11.2264C13.9982 11.2257 14.1612 11.2247 14.3221 11.6111C14.384 11.7597 14.4745 11.9802 14.57 12.2127C14.7631 12.6828 14.9765 13.2023 15.014 13.2775C15.0702 13.3898 15.1076 13.5208 15.0327 13.6706C15.0215 13.6931 15.0111 13.7143 15.0012 13.7346C14.945 13.8493 14.9037 13.9336 14.8083 14.045C14.7708 14.0888 14.7321 14.136 14.6933 14.1832C14.6161 14.2772 14.5389 14.3712 14.4717 14.4382C14.3593 14.5501 14.2424 14.6715 14.3733 14.8962C14.5042 15.1209 14.9546 15.8558 15.6218 16.4509C16.339 17.0906 16.9623 17.361 17.2782 17.498C17.3399 17.5248 17.3899 17.5464 17.4266 17.5648C17.6509 17.6772 17.7818 17.6583 17.9128 17.5086C18.0437 17.3588 18.4738 16.8533 18.6233 16.6286C18.7729 16.4041 18.9226 16.4415 19.1283 16.5163C19.3341 16.5913 20.4374 17.1342 20.6618 17.2465C20.7056 17.2684 20.7466 17.2882 20.7846 17.3065Z" fill="#FDFDFD"/>
</g>
<defs>
<clipPath id="clip0_1_385">
<rect width="30.2095" height="30.2095" fill="white" transform="translate(0.964325 0.846191)"/>
</clipPath>
</defs>
</svg>
